<svg width="40" height="32" viewBox="0 0 40 32" fill="none" xmlns="http://www.w3.org/2000/svg">
<path d="M8.52793 26.6658L8.61237 26.7501L11.061 20.1271L9.71002 18.8287L7.55693 16.6491C7.21919 16.3118 7.21919 15.8101 7.55693 15.4771L13.1296 9.94598C13.4674 9.60871 13.4674 9.10703 13.1296 8.77399L9.75224 5.42243C9.4145 5.08517 8.90789 5.08517 8.57015 5.42243L1.73092 12.2141C0.67548 13.1795 0 14.5623 0 16.0715C0 17.4965 0.591045 18.7949 1.51983 19.7182L8.52793 26.6658ZM15.5403 31.9229L10.8414 29.8656C10.4319 29.6717 10.204 29.1953 10.4024 28.74L22.8017 0.511034C22.9959 0.102102 23.4729 -0.125551 23.9289 0.0725912L28.6277 2.1299C29.0372 2.32382 29.2652 2.80021 29.0667 3.25552L16.6675 31.4845C16.4733 31.9355 15.954 32.1168 15.5403 31.9229ZM38.038 12.29L31.0721 5.29174L30.9454 5.16527L28.4968 11.7841L29.89 13.1753L32.0853 15.3675C32.423 15.7047 32.423 16.2106 32.0853 16.5479L26.4281 22.1128C26.0904 22.45 26.0904 22.9559 26.4281 23.2932L29.8055 26.6658C30.1433 27.0031 30.6499 27.0031 30.9876 26.6658L37.8269 19.8362C38.8823 18.8666 39.5578 17.4754 39.5578 15.9577C39.5578 14.5243 38.9667 13.2174 38.038 12.29Z" fill="white"/>
</svg>
